<svg width="420" height="200" viewBox="0 0 420 200" fill="none" xmlns="http://www.w3.org/2000/svg">
<path fill-rule="evenodd" clip-rule="evenodd" d="M261 0C288.791 0 312.379 17.7092 320.749 42.2864C304.569 53.5083 294 72.0395 294 93C294 99.8916 295.143 106.521 297.251 112.714C287 119.824 274.495 124 261 124C246.833 124 233.759 119.398 223.236 111.631C224.389 106.94 225 102.04 225 97C225 76.7001 215.087 58.6788 199.764 47.3691C206.446 20.1882 231.327 0 261 0ZM114.286 56.513C125.839 43.3386 142.93 35 162 35C176.167 35 189.241 39.6017 199.764 47.3691C198.611 52.0604 198 56.96 198 62C198 82.2999 207.913 100.321 223.236 111.631C216.554 138.812 191.673 159 162 159C141.525 159 123.332 149.388 111.825 134.499C121.281 123.635 127 109.48 127 94C127 79.9133 122.264 66.9239 114.286 56.513ZM114.286 56.513C104.76 67.3756 99 81.5258 99 97C99 111.092 103.777 124.086 111.825 134.499C100.364 147.666 83.4131 156 64.5 156C29.9822 156 2 128.242 2 94C2 59.7583 29.9822 32 64.5 32C84.8175 32 102.871 41.6172 114.286 56.513ZM297.251 112.714C305.621 137.291 329.209 155 357 155C391.794 155 420 127.242 420 93C420 58.7583 391.794 31 357 31C343.505 31 331 35.1759 320.749 42.2864C322.857 48.4794 324 55.1084 324 62C324 82.9605 313.431 101.492 297.251 112.714Z" fill="#F4D949"/>
<path d="M66 149V196" stroke="#4B5DFF" stroke-width="3" stroke-linecap="round"/>
<path d="M165 149V196" stroke="#4B5DFF" stroke-width="3" stroke-linecap="round"/>
<path d="M271 114V195" stroke="#4B5DFF" stroke-width="3" stroke-linecap="round"/>
<path d="M66 196H85" stroke="#4B5DFF" stroke-width="3" stroke-linecap="round"/>
<path d="M356 141V196" stroke="#4B5DFF" stroke-width="3" stroke-linecap="round"/>
<path d="M271 195H290" stroke="#4B5DFF" stroke-width="3" stroke-linecap="round"/>
<path d="M165 196H184" stroke="#4B5DFF" stroke-width="3" stroke-linecap="round"/>
<path d="M48 154V198" stroke="#4B5DFF" stroke-width="3" stroke-linecap="round"/>
<path d="M356 195H375" stroke="#4B5DFF" stroke-width="3" stroke-linecap="round"/>
<path d="M253 123V198" stroke="#4B5DFF" stroke-width="3" stroke-linecap="round"/>
<path d="M28 198H47" stroke="#4B5DFF" stroke-width="3" stroke-linecap="round"/>
<path d="M147 154V198" stroke="#4B5DFF" stroke-width="3" stroke-linecap="round"/>
<path d="M338 147V198" stroke="#4B5DFF" stroke-width="3" stroke-linecap="round"/>
<path d="M45.3391 100.834C44.8508 110.196 51.1559 116.17 60.5427 114.842" stroke="#4B5DFF" stroke-width="3" stroke-linecap="round"/>
<path d="M233 198H252" stroke="#4B5DFF" stroke-width="3" stroke-linecap="round"/>
<path d="M127 198H146" stroke="#4B5DFF" stroke-width="3" stroke-linecap="round"/>
<path d="M22.9739 146.586C8.46306 141.647 3.21718 128.447 10.9307 115" stroke="#4B5DFF" stroke-width="3" stroke-linecap="round"/>
<path d="M132.474 132.53C121.535 143.267 107.386 142.013 98.8473 129.075" stroke="#4B5DFF" stroke-width="3" stroke-linecap="round"/>
<path d="M318 198H337" stroke="#4B5DFF" stroke-width="3" stroke-linecap="round"/>
<path d="M259.213 70.2408C265.292 77.3764 273.978 77.3829 279.884 69.9666" stroke="#4B5DFF" stroke-width="3" stroke-linecap="round"/>
<path d="M328.592 81.9257C329.414 87.2343 333.65 89.8479 338.761 88.0039" stroke="#4B5DFF" stroke-width="3" stroke-linecap="round"/>
<path d="M144.048 111.044C157.189 114.901 167.812 107.958 169.096 94.1666" stroke="#4B5DFF" stroke-width="3" stroke-linecap="round"/>
<circle cx="66" cy="86" r="2" fill="#4B5DFF"/>
<path d="M210.627 68.8661C199.687 79.6031 185.538 78.3495 177 65.4111" stroke="#4B5DFF" stroke-width="3" stroke-linecap="round"/>
<path d="M334.359 104.538C322.798 114.603 308.749 112.507 300.998 99.0815" stroke="#4B5DFF" stroke-width="3" stroke-linecap="round"/>
<path d="M407.59 127.256C410.119 142.374 400.984 153.25 385.487 152.833" stroke="#4B5DFF" stroke-width="3" stroke-linecap="round"/>
<circle cx="81" cy="86" r="2" fill="#4B5DFF"/>
<circle cx="140" cy="86" r="2" fill="#4B5DFF"/>
<circle cx="263" cy="55" r="2" fill="#4B5DFF"/>
<circle cx="331" cy="72" r="2" fill="#4B5DFF"/>
<circle cx="278" cy="55" r="2" fill="#4B5DFF"/>
<circle cx="155" cy="86" r="2" fill="#4B5DFF"/>
<circle cx="346" cy="72" r="2" fill="#4B5DFF"/>
</svg>
